<?xml version="1.0" encoding="utf-8"?>
<!-- Generator: Adobe Illustrator 24.0.2, SVG Export Plug-In . SVG Version: 6.00 Build 0)  -->
<svg version="1.1" id="Layer_1" xmlns="http://www.w3.org/2000/svg" xmlns:xlink="http://www.w3.org/1999/xlink" x="0px" y="0px"
	 viewBox="0 0 157.58 34.94" style="enable-background:new 0 0 157.58 34.94;" xml:space="preserve">
<style type="text/css">
	.st0{fill:#FFDD15;}
	.st1{fill:#F3F2ED;}
</style>
<g>
	<g>
		<g>
			<g>
				<polygon class="st0" points="34.78,0 0,34.78 12.97,34.78 47.76,0 				"/>
				<polygon class="st0" points="46.02,17.54 63.56,0 50.58,0 33.04,17.54 				"/>
				<polygon class="st0" points="66.38,0 31.6,34.78 44.58,34.78 79.36,0 				"/>
				<polygon class="st0" points="60.38,34.78 79.36,15.8 79.36,2.83 47.4,34.78 				"/>
				<polygon class="st0" points="79.36,18.63 63.21,34.78 74.29,34.77 74.29,34.77 79.36,34.78 79.38,28.36 79.38,28.36 				"/>
			</g>
		</g>
	</g>
	<g>
		<path class="st1" d="M96.76,34.75l-0.9-2.7h-5l-0.93,2.7h-2.56l4.55-13.19h3l4.65,13.19H96.76z M93.86,26.12
			c-0.23-0.69-0.4-1.3-0.52-1.82h-0.02c-0.21,0.78-0.38,1.39-0.52,1.82l-1.35,3.92h3.75L93.86,26.12z"/>
		<path class="st1" d="M111.06,34.12c-1.35,0.55-2.86,0.82-4.51,0.82c-2.14,0-3.79-0.57-4.95-1.72c-1.14-1.12-1.71-2.67-1.71-4.67
			c0-2.19,0.63-3.92,1.88-5.2c1.3-1.33,3.11-1.99,5.45-1.99c1.29,0,2.53,0.19,3.73,0.57l-0.51,2.32c-1.01-0.41-2.14-0.62-3.38-0.62
			c-1.48,0-2.61,0.45-3.39,1.35c-0.69,0.81-1.03,1.89-1.03,3.23c0,1.41,0.36,2.49,1.07,3.26c0.73,0.78,1.77,1.17,3.13,1.17
			c0.61,0,1.17-0.08,1.68-0.24v-4.59h2.54V34.12z"/>
		<path class="st1" d="M113.74,34.75V21.57h7.18v2.13h-4.64v3.24h4.4v2.07h-4.4v3.56h4.64v2.18H113.74z"/>
		<path class="st1" d="M130.93,34.75l-4.08-7.27c-0.56-1.09-0.95-1.95-1.17-2.58c0.09,1.34,0.13,3.43,0.13,6.27v3.58h-2.44V21.57
			h3.36l3.99,7.09c0.44,0.78,0.87,1.66,1.27,2.64c-0.09-1.55-0.13-3.69-0.13-6.41v-3.32h2.44v13.19H130.93z"/>
		<path class="st1" d="M145.81,34.31c-1.06,0.4-2.21,0.6-3.43,0.6c-2.14,0-3.74-0.64-4.78-1.93c-0.88-1.09-1.32-2.55-1.32-4.4
			c0-2.16,0.55-3.87,1.65-5.13c1.16-1.34,2.81-2,4.95-2c1,0,1.94,0.13,2.81,0.39l-0.35,2.35c-0.8-0.31-1.66-0.47-2.58-0.47
			c-1.2,0-2.13,0.42-2.78,1.25c-0.61,0.78-0.92,1.84-0.92,3.19c0,2.97,1.28,4.46,3.85,4.46c0.92,0,1.75-0.18,2.5-0.55L145.81,34.31z
			"/>
		<path class="st1" d="M153.32,30.09v4.67h-2.54v-4.65l-4.12-8.54h2.78l1.74,3.79c0.33,0.73,0.63,1.46,0.9,2.18h0.04
			c0.18-0.51,0.54-1.32,1.06-2.44l1.66-3.53h2.7L153.32,30.09z"/>
	</g>
	<g>
		<path class="st1" d="M91.56,13.92c-0.53,0.5-1.26,0.76-2.19,0.76c-0.18,0-0.35-0.01-0.51-0.02v2.56h-1.43V9.8
			c0.68-0.03,1.37-0.05,2.07-0.05c0.9,0,1.6,0.2,2.09,0.59c0.48,0.4,0.72,0.96,0.72,1.69C92.31,12.81,92.06,13.44,91.56,13.92z
			 M89.4,10.93c-0.19,0-0.37,0-0.55,0.01v2.49c0.18,0.04,0.38,0.06,0.61,0.06c0.91,0,1.37-0.44,1.37-1.31
			C90.83,11.35,90.35,10.93,89.4,10.93z"/>
		<path class="st1" d="M97.86,17.21v-3.22h-3.14v3.22h-1.43V9.8h1.43v2.96h3.14V9.8h1.44v7.41H97.86z"/>
		<path class="st1" d="M106.24,16.28c-0.68,0.7-1.53,1.05-2.56,1.05c-1.11,0-1.95-0.34-2.54-1.01c-0.56-0.64-0.84-1.54-0.84-2.71
			c0-1.19,0.36-2.16,1.07-2.89c0.68-0.7,1.53-1.05,2.56-1.05c1.11,0,1.95,0.33,2.53,1c0.56,0.64,0.84,1.55,0.84,2.71
			C107.31,14.58,106.96,15.55,106.24,16.28z M105.3,11.67c-0.34-0.47-0.83-0.71-1.48-0.71c-0.58,0-1.04,0.21-1.4,0.64
			c-0.38,0.45-0.57,1.06-0.57,1.84c0,0.81,0.16,1.44,0.48,1.89c0.34,0.47,0.83,0.7,1.48,0.7c0.58,0,1.05-0.21,1.41-0.64
			c0.38-0.45,0.57-1.06,0.57-1.84C105.78,12.75,105.62,12.12,105.3,11.67z"/>
		<path class="st1" d="M111.13,11.02v6.19h-1.43v-6.19h-1.92V9.8h5.27v1.22H111.13z"/>
		<path class="st1" d="M119.43,16.28c-0.68,0.7-1.53,1.05-2.56,1.05c-1.11,0-1.95-0.34-2.54-1.01c-0.56-0.64-0.84-1.54-0.84-2.71
			c0-1.19,0.36-2.16,1.07-2.89c0.68-0.7,1.53-1.05,2.56-1.05c1.11,0,1.95,0.33,2.53,1c0.56,0.64,0.84,1.55,0.84,2.71
			C120.5,14.58,120.14,15.55,119.43,16.28z M118.49,11.67c-0.34-0.47-0.83-0.71-1.48-0.71c-0.58,0-1.04,0.21-1.4,0.64
			c-0.38,0.45-0.57,1.06-0.57,1.84c0,0.81,0.16,1.44,0.48,1.89c0.34,0.47,0.83,0.7,1.48,0.7c0.58,0,1.05-0.21,1.41-0.64
			c0.38-0.45,0.57-1.06,0.57-1.84C118.97,12.75,118.81,12.12,118.49,11.67z"/>
		<path class="st1" d="M130.85,17.21l-0.54-3.58c-0.08-0.54-0.16-1.15-0.23-1.85h-0.02c-0.15,0.7-0.28,1.27-0.41,1.69l-1.2,3.74
			h-1.38l-1.14-3.48c-0.2-0.66-0.36-1.32-0.48-1.96h-0.02c-0.06,0.7-0.12,1.36-0.2,1.98l-0.43,3.46h-1.44l1.13-7.41h1.68l1.25,3.83
			c0.16,0.54,0.3,1.06,0.41,1.56h0.02c0.15-0.65,0.29-1.17,0.4-1.54l1.27-3.85h1.67l1.15,7.41H130.85z"/>
		<path class="st1" d="M137.95,17.21l-0.5-1.52h-2.81l-0.52,1.52h-1.44l2.56-7.41h1.68l2.61,7.41H137.95z M136.33,12.36
			c-0.13-0.39-0.23-0.73-0.29-1.02h-0.01c-0.12,0.44-0.21,0.78-0.29,1.02l-0.76,2.2h2.11L136.33,12.36z"/>
		<path class="st1" d="M144.12,17.21l-2.39-3.56v3.56h-1.43V9.8h1.43v3.36l2.4-3.36h1.75l-2.72,3.58l2.84,3.83H144.12z"/>
		<path class="st1" d="M146.86,17.21V9.8h4.03V11h-2.61v1.82h2.47v1.16h-2.47v2h2.61v1.23H146.86z"/>
		<path class="st1" d="M155.81,17.21l-2-3.06h-0.12v3.06h-1.43V9.8c0.52-0.03,1.23-0.05,2.13-0.05c1.79,0,2.69,0.7,2.69,2.09
			c0,0.54-0.18,1-0.53,1.38c-0.34,0.36-0.77,0.59-1.3,0.69c0.28,0.36,0.48,0.63,0.6,0.81l1.72,2.49H155.81z M154.25,10.92
			c-0.23,0-0.42,0.01-0.56,0.04v2.14c0.13,0.01,0.3,0.02,0.51,0.02c0.43,0,0.77-0.1,1.01-0.31c0.25-0.2,0.38-0.48,0.38-0.83
			C155.59,11.27,155.15,10.92,154.25,10.92z"/>
	</g>
</g>
</svg>
